<?xml version="1.0" standalone="no"?>
<!DOCTYPE svg PUBLIC "-//W3C//DTD SVG 20010904//EN"
 "http://www.w3.org/TR/2001/REC-SVG-20010904/DTD/svg10.dtd">
<svg version="1.0" xmlns="http://www.w3.org/2000/svg"
 width="512.000000pt" height="512.000000pt" viewBox="0 0 512.000000 512.000000"
 preserveAspectRatio="xMidYMid meet">
<metadata>
Created by potrace 1.11, written by Peter Selinger 2001-2013
</metadata>
<g transform="translate(0.000000,512.000000) scale(0.100000,-0.100000)"
fill="#000000" stroke="none">
<path d="M2010 4412 l-1285 -527 0 -250 0 -250 220 -168 220 -169 5 232 5 231
600 250 c330 137 813 337 1073 445 l472 197 0 216 c0 211 -7 322 -19 320 -3 0
-584 -238 -1291 -527z"/>
<path d="M3105 4214 c-401 -167 -981 -408 -1287 -536 l-558 -231 0 -236 0
-236 178 -136 177 -136 3 157 2 157 33 15 c17 8 521 228 1120 488 l1087 473 0
263 c0 205 -3 264 -12 263 -7 0 -341 -137 -743 -305z"/>
<path d="M3540 3753 c-421 -183 -1005 -437 -1297 -565 l-533 -232 0 -162 0
-163 133 -102 c72 -56 137 -106 143 -111 7 -5 457 190 1170 508 637 283 1159
516 1159 517 0 1 -2 146 -5 322 l-5 321 -765 -333z"/>
<path d="M3340 2910 l-1295 -577 -3 -1078 c-2 -861 0 -1076 10 -1072 7 3 569
278 1248 612 679 334 1263 620 1298 637 l62 29 0 1015 c0 805 -3 1014 -12
1013 -7 -1 -596 -261 -1308 -579z"/>
<path d="M461 2418 l0 -1053 645 -500 c355 -275 688 -533 740 -573 l94 -73 -2
1062 -3 1063 -720 553 c-396 305 -728 558 -737 564 -17 9 -18 -43 -17 -1043z"/>
</g>
</svg>
